<?xml version="1.0" encoding="UTF-8"?><svg id="uuid-f4c1713c-e053-43af-876c-ed4326c8fc72" xmlns="http://www.w3.org/2000/svg" viewBox="0 0 235.276 212.598"><defs><style>.uuid-b249b38f-c4af-4276-9323-75001a01edef{fill:#fff;}</style></defs><path class="uuid-b249b38f-c4af-4276-9323-75001a01edef" d="M136.822,98.497c-26.017-26.026-39.03-60.131-39.03-94.244H4.209v133.274h133.265v-38.387c-.221-.211-.432-.423-.652-.643ZM82.49,115.471c-15.531,15.522-40.703,15.522-56.225,0-15.522-15.531-15.522-40.703,0-56.225,15.522-15.531,40.694-15.531,56.225,0,15.522,15.522,15.522,40.694,0,56.225ZM231.066,4.253v133.274c-33.829,0-67.648-12.792-93.592-38.387V4.253h93.592Z"/><path class="uuid-b249b38f-c4af-4276-9323-75001a01edef" d="M29.232,208.345c-3.243,0-6.36-.225-9.35-.675-2.991-.45-5.666-1.279-8.025-2.486-2.36-1.207-4.225-2.919-5.594-5.135-1.37-2.215-2.054-5.088-2.054-8.62h18.267c0,1.658.621,2.774,1.864,3.351,1.243.577,2.819.865,4.729.865,1.838,0,3.368-.225,4.594-.676,1.224-.45,1.838-1.251,1.838-2.405,0-1.224-.739-2.18-2.216-2.864-1.478-.684-4.54-1.549-9.188-2.594-3.423-.756-6.63-1.783-9.62-3.081-2.991-1.297-5.414-3.089-7.269-5.377-1.856-2.287-2.783-5.25-2.783-8.89,0-3.314.72-6.026,2.162-8.134,1.441-2.108,3.351-3.738,5.729-4.891,2.378-1.153,4.999-1.963,7.863-2.432,2.864-.468,5.72-.703,8.566-.703,3.062,0,6.034.253,8.917.756,2.882.505,5.467,1.37,7.755,2.594,2.288,1.226,4.107,2.901,5.459,5.026,1.351,2.126,2.027,4.792,2.027,7.998h-18.267c0-1.369-.54-2.378-1.621-3.026-1.081-.649-2.432-.972-4.053-.972-1.658,0-2.955.189-3.891.567-.937.378-1.405.964-1.405,1.757,0,.469.306.955.919,1.459.612.505,1.882,1.09,3.81,1.757,1.927.667,4.818,1.486,8.674,2.459,3.711.901,6.899,1.955,9.566,3.162,2.666,1.207,4.729,2.846,6.188,4.918,1.459,2.072,2.189,4.909,2.189,8.512,0,3.242-.694,5.99-2.081,8.241-1.388,2.253-3.279,4.081-5.675,5.486-2.396,1.405-5.143,2.432-8.242,3.081-3.099.648-6.359.972-9.782.972Z"/><path class="uuid-b249b38f-c4af-4276-9323-75001a01edef" d="M87.644,208.238c-5.549,0-10.512-.973-14.889-2.919-4.377-1.946-7.819-4.972-10.322-9.08-2.505-4.107-3.756-9.367-3.756-15.781,0-5.8,1.224-10.682,3.675-14.646,2.45-3.964,5.827-6.972,10.133-9.026,4.305-2.054,9.215-3.08,14.727-3.08,8.575,0,15.403,2.387,20.483,7.161,5.08,4.774,7.62,11.754,7.62,20.942,0,.36-.019.829-.054,1.405-.036.577-.09,1.063-.162,1.459h-36.426c.072,1.766.414,3.424,1.027,4.973.612,1.549,1.594,2.792,2.945,3.729,1.351.937,3.125,1.405,5.323,1.405,2.378,0,4.351-.423,5.918-1.27,1.567-.846,2.405-2.243,2.513-4.188h18.699c-.289,4.576-1.613,8.251-3.972,11.025-2.36,2.774-5.549,4.782-9.566,6.025-4.018,1.244-8.657,1.865-13.917,1.865ZM79.105,173.865h16.321c-.181-2.666-1.081-4.576-2.702-5.729-1.621-1.153-3.459-1.73-5.513-1.73-2.09,0-3.9.64-5.431,1.918-1.532,1.279-2.423,3.127-2.675,5.54Z"/><path class="uuid-b249b38f-c4af-4276-9323-75001a01edef" d="M144.542,208.345c-3.243,0-6.36-.225-9.35-.675-2.991-.45-5.666-1.279-8.025-2.486-2.36-1.207-4.225-2.919-5.594-5.135-1.37-2.215-2.054-5.088-2.054-8.62h18.267c0,1.658.621,2.774,1.864,3.351,1.243.577,2.819.865,4.729.865,1.838,0,3.368-.225,4.594-.676,1.224-.45,1.838-1.251,1.838-2.405,0-1.224-.739-2.18-2.216-2.864-1.478-.684-4.54-1.549-9.188-2.594-3.423-.756-6.63-1.783-9.62-3.081-2.991-1.297-5.414-3.089-7.269-5.377-1.856-2.287-2.783-5.25-2.783-8.89,0-3.314.72-6.026,2.162-8.134,1.441-2.108,3.351-3.738,5.729-4.891,2.378-1.153,4.999-1.963,7.863-2.432,2.864-.468,5.72-.703,8.566-.703,3.062,0,6.034.253,8.917.756,2.882.505,5.467,1.37,7.755,2.594,2.288,1.226,4.107,2.901,5.459,5.026,1.351,2.126,2.027,4.792,2.027,7.998h-18.267c0-1.369-.54-2.378-1.621-3.026-1.081-.649-2.432-.972-4.053-.972-1.658,0-2.955.189-3.891.567-.937.378-1.405.964-1.405,1.757,0,.469.306.955.919,1.459.612.505,1.882,1.09,3.81,1.757,1.927.667,4.818,1.486,8.674,2.459,3.711.901,6.899,1.955,9.566,3.162,2.666,1.207,4.729,2.846,6.188,4.918,1.459,2.072,2.189,4.909,2.189,8.512,0,3.242-.694,5.99-2.081,8.241-1.388,2.253-3.279,4.081-5.675,5.486-2.396,1.405-5.143,2.432-8.242,3.081-3.099.648-6.359.972-9.782.972Z"/><path class="uuid-b249b38f-c4af-4276-9323-75001a01edef" d="M202.596,176.84v12.229h11.367c-.318,1.102-.865,2.086-1.627,2.93-.819.908-1.928,1.629-3.294,2.143-1.375.517-3.086.778-5.086.778-2.864,0-5.181-.633-6.885-1.88-1.706-1.249-2.946-2.968-3.688-5.106-.748-2.156-1.127-4.597-1.127-7.253,0-2.682.372-5.116,1.106-7.234.728-2.102,1.933-3.794,3.582-5.028,1.646-1.233,3.861-1.858,6.582-1.858,1.972,0,3.653.262,4.999.777,1.335.513,2.398,1.238,3.16,2.157.762.917,1.26,2.029,1.482,3.308l.029.166h17.782l-.015-.214c-.231-3.447-1.152-6.453-2.737-8.936-1.587-2.48-3.675-4.538-6.207-6.115-2.53-1.574-5.384-2.747-8.479-3.485-3.098-.739-6.322-1.114-9.585-1.114-5.816,0-10.992,1.099-15.384,3.265-4.396,2.171-7.871,5.345-10.329,9.433-2.456,4.087-3.702,9.094-3.702,14.88s1.246,10.752,3.702,14.838c2.459,4.091,5.934,7.258,10.33,9.414,4.389,2.152,9.564,3.244,15.383,3.244,5.934,0,10.987-1.032,15.02-3.067,4.043-2.04,7.136-4.976,9.194-8.726,2.054-3.744,3.096-8.202,3.096-13.251v-6.293h-28.67Z"/></svg>